<?xml version="1.0" encoding="utf-8"?>
<!-- Generator: Adobe Illustrator 17.1.0, SVG Export Plug-In . SVG Version: 6.00 Build 0)  -->
<!DOCTYPE svg PUBLIC "-//W3C//DTD SVG 1.1//EN" "http://www.w3.org/Graphics/SVG/1.1/DTD/svg11.dtd">
<svg version="1.1" id="Layer_1" xmlns="http://www.w3.org/2000/svg" xmlns:xlink="http://www.w3.org/1999/xlink" x="0px" y="0px"
	 viewBox="0 0 595.3 841.9" enable-background="new 0 0 595.3 841.9" xml:space="preserve">
<g>
	<g>
		<g>
			<path fill="#FBFBFB" d="M217.8,421.9h3.2v3.1h-3.2V421.9z M217.8,427.5h3.2v14.6h-3.2V427.5z"/>
			<path fill="#FBFBFB" d="M223.7,427.5h3.1v2.2l0.1,0.1c0.5-0.8,1.1-1.4,1.9-1.9s1.7-0.7,2.6-0.7c1.6,0,2.9,0.4,3.8,1.2
				c0.9,0.8,1.4,2.1,1.4,3.7v10.1h-3.2v-9.2c0-1.2-0.3-2-0.7-2.5c-0.5-0.5-1.2-0.8-2.1-0.8c-0.5,0-1,0.1-1.5,0.3
				c-0.4,0.2-0.8,0.5-1.1,0.8c-0.3,0.3-0.5,0.8-0.7,1.2c-0.2,0.5-0.3,1-0.3,1.5v8.6h-3.2V427.5z"/>
			<path fill="#FBFBFB" d="M245.4,422.3H259v2.7c-1,1.2-2,2.4-2.8,3.6c-0.8,1.3-1.6,2.6-2.2,4c-0.6,1.4-1.1,2.9-1.5,4.5
				c-0.4,1.6-0.7,3.2-0.8,5H248c0.1-1.6,0.4-3.1,0.8-4.6c0.4-1.5,1-3,1.6-4.4c0.7-1.4,1.4-2.8,2.3-4.1c0.9-1.3,1.8-2.6,2.9-3.7
				h-10.3V422.3z"/>
		</g>
	</g>
	<g>
		<path fill="#FBFBFB" d="M215.9,401.1h3.4l4.6,14.6h0.1l4.7-14.6h3.3l-6.3,18.5H222L215.9,401.1z"/>
		<path fill="#FBFBFB" d="M233,401.1h3.2v18.5H233V401.1z"/>
		<path fill="#FBFBFB" d="M241.5,413.4c0,0.7,0.1,1.3,0.4,1.8c0.2,0.5,0.6,0.9,1,1.2c0.4,0.3,0.9,0.6,1.5,0.7
			c0.6,0.1,1.2,0.2,1.8,0.2c0.7,0,1.3-0.1,1.8-0.2c0.5-0.2,0.9-0.4,1.2-0.6c0.3-0.3,0.5-0.6,0.7-0.9c0.1-0.3,0.2-0.7,0.2-1
			c0-0.7-0.2-1.2-0.5-1.6c-0.3-0.3-0.7-0.6-1-0.7c-0.7-0.2-1.4-0.5-2.3-0.7c-0.9-0.2-1.9-0.5-3.2-0.8c-0.8-0.2-1.5-0.5-2-0.8
			c-0.5-0.3-0.9-0.7-1.3-1.1c-0.3-0.4-0.5-0.9-0.7-1.3c-0.1-0.5-0.2-0.9-0.2-1.4c0-0.9,0.2-1.7,0.6-2.4c0.4-0.7,0.9-1.2,1.5-1.7
			c0.6-0.4,1.4-0.8,2.2-1c0.8-0.2,1.6-0.3,2.5-0.3c1,0,1.9,0.1,2.7,0.4c0.9,0.2,1.6,0.6,2.2,1.1c0.6,0.5,1.2,1.1,1.5,1.8
			c0.4,0.7,0.6,1.6,0.6,2.5h-3.2c-0.1-1.2-0.5-2-1.2-2.5c-0.7-0.5-1.6-0.7-2.8-0.7c-0.4,0-0.8,0-1.2,0.1c-0.4,0.1-0.8,0.2-1.1,0.4
			c-0.3,0.2-0.6,0.4-0.8,0.7c-0.2,0.3-0.3,0.7-0.3,1.2c0,0.7,0.2,1.2,0.6,1.5c0.4,0.4,0.9,0.7,1.6,0.8c0.1,0,0.3,0.1,0.8,0.2
			c0.5,0.1,1,0.3,1.6,0.4c0.6,0.2,1.2,0.3,1.7,0.5c0.6,0.1,1,0.3,1.2,0.3c0.6,0.2,1.1,0.4,1.6,0.8c0.4,0.3,0.8,0.7,1.1,1.1
			c0.3,0.4,0.5,0.9,0.7,1.4c0.1,0.5,0.2,1,0.2,1.4c0,1-0.2,1.9-0.6,2.7c-0.4,0.7-1,1.3-1.7,1.8c-0.7,0.5-1.5,0.8-2.4,1
			c-0.9,0.2-1.8,0.3-2.7,0.3c-1.1,0-2-0.1-3-0.4c-0.9-0.3-1.7-0.7-2.4-1.2c-0.7-0.5-1.2-1.2-1.7-2.1c-0.4-0.8-0.6-1.8-0.6-3H241.5z"
			/>
		<path fill="#FBFBFB" d="M255.2,401.1h3.2v10.8c0,0.6,0,1.2,0.1,1.9c0.1,0.6,0.2,1.2,0.5,1.7c0.3,0.5,0.7,0.9,1.3,1.3
			c0.6,0.3,1.4,0.5,2.4,0.5c1.1,0,1.9-0.2,2.4-0.5c0.6-0.3,1-0.7,1.3-1.3c0.3-0.5,0.5-1.1,0.5-1.7c0.1-0.6,0.1-1.3,0.1-1.9v-10.8
			h3.2v11.8c0,1.2-0.2,2.2-0.5,3.1c-0.4,0.9-0.9,1.6-1.5,2.2c-0.7,0.6-1.5,1-2.4,1.3c-0.9,0.3-2,0.4-3.1,0.4c-1.1,0-2.2-0.1-3.1-0.4
			c-0.9-0.3-1.7-0.7-2.4-1.3c-0.7-0.6-1.2-1.3-1.5-2.2c-0.4-0.9-0.5-1.9-0.5-3.1V401.1z"/>
		<path fill="#FBFBFB" d="M278.2,401.1h3.4l7.1,18.5h-3.5l-1.7-4.9h-7.4l-1.7,4.9h-3.3L278.2,401.1z M277.1,412.2h5.6l-2.8-7.9h-0.1
			L277.1,412.2z"/>
		<path fill="#FBFBFB" d="M289.7,401.1h3.2v15.7h9.4v2.8h-12.6V401.1z"/>
		<path fill="#FBFBFB" d="M303.8,401.1h3.2v18.5h-3.2V401.1z"/>
		<path fill="#FBFBFB" d="M309.7,401.1h14v2.5L313,416.8h11v2.8h-15.1v-2.6l10.8-13h-9.9V401.1z"/>
		<path fill="#FBFBFB" d="M330.7,401.1h3.4l7.1,18.5h-3.5l-1.7-4.9h-7.4l-1.7,4.9h-3.3L330.7,401.1z M329.5,412.2h5.6l-2.8-7.9h-0.1
			L329.5,412.2z"/>
		<path fill="#FBFBFB" d="M338.1,401.1H353v2.8h-5.9v15.7h-3.2v-15.7h-5.8V401.1z"/>
		<path fill="#FBFBFB" d="M354.4,401.1h3.2v18.5h-3.2V401.1z"/>
		<path fill="#FBFBFB" d="M368.6,400.7c1.4,0,2.6,0.3,3.7,0.8c1.1,0.5,2,1.2,2.8,2.1c0.8,0.9,1.3,1.9,1.7,3.1
			c0.4,1.2,0.6,2.4,0.6,3.7c0,1.3-0.2,2.6-0.6,3.7c-0.4,1.2-1,2.2-1.7,3.1c-0.8,0.9-1.7,1.6-2.8,2.1c-1.1,0.5-2.3,0.8-3.7,0.8
			c-1.4,0-2.6-0.3-3.7-0.8c-1.1-0.5-2-1.2-2.8-2.1c-0.8-0.9-1.3-1.9-1.7-3.1c-0.4-1.2-0.6-2.4-0.6-3.7c0-1.3,0.2-2.6,0.6-3.7
			c0.4-1.2,1-2.2,1.7-3.1c0.8-0.9,1.7-1.6,2.8-2.1C366,400.9,367.3,400.7,368.6,400.7z M368.6,403.3c-1,0-1.8,0.2-2.5,0.6
			c-0.7,0.4-1.3,0.9-1.7,1.6c-0.4,0.7-0.8,1.4-1,2.3c-0.2,0.8-0.3,1.7-0.3,2.6s0.1,1.7,0.3,2.6c0.2,0.8,0.5,1.6,1,2.3
			c0.4,0.7,1,1.2,1.7,1.6c0.7,0.4,1.6,0.6,2.5,0.6c1,0,1.8-0.2,2.5-0.6c0.7-0.4,1.3-0.9,1.7-1.6c0.4-0.7,0.8-1.4,1-2.3
			c0.2-0.8,0.3-1.7,0.3-2.6s-0.1-1.7-0.3-2.6c-0.2-0.8-0.5-1.6-1-2.3c-0.4-0.7-1-1.2-1.7-1.6C370.5,403.5,369.6,403.3,368.6,403.3z"
			/>
		<path fill="#FBFBFB" d="M379.5,401.1h3.4l8.4,13.6h0.1v-13.6h3.1v18.5h-3.4l-8.4-13.6h-0.1v13.6h-3.1V401.1z"/>
		<path fill="#FBFBFB" d="M399.7,413.4c0,0.7,0.1,1.3,0.4,1.8c0.2,0.5,0.6,0.9,1,1.2c0.4,0.3,0.9,0.6,1.5,0.7
			c0.6,0.1,1.2,0.2,1.8,0.2c0.7,0,1.3-0.1,1.8-0.2c0.5-0.2,0.9-0.4,1.2-0.6c0.3-0.3,0.5-0.6,0.7-0.9c0.1-0.3,0.2-0.7,0.2-1
			c0-0.7-0.2-1.2-0.5-1.6c-0.3-0.3-0.7-0.6-1-0.7c-0.7-0.2-1.4-0.5-2.3-0.7c-0.9-0.2-1.9-0.5-3.2-0.8c-0.8-0.2-1.5-0.5-2-0.8
			c-0.5-0.3-0.9-0.7-1.3-1.1c-0.3-0.4-0.5-0.9-0.7-1.3c-0.1-0.5-0.2-0.9-0.2-1.4c0-0.9,0.2-1.7,0.6-2.4c0.4-0.7,0.9-1.2,1.5-1.7
			c0.6-0.4,1.4-0.8,2.2-1c0.8-0.2,1.6-0.3,2.5-0.3c1,0,1.9,0.1,2.7,0.4c0.9,0.2,1.6,0.6,2.2,1.1c0.6,0.5,1.2,1.1,1.5,1.8
			c0.4,0.7,0.6,1.6,0.6,2.5h-3.2c-0.1-1.2-0.5-2-1.2-2.5c-0.7-0.5-1.6-0.7-2.8-0.7c-0.4,0-0.8,0-1.2,0.1c-0.4,0.1-0.8,0.2-1.1,0.4
			c-0.3,0.2-0.6,0.4-0.8,0.7c-0.2,0.3-0.3,0.7-0.3,1.2c0,0.7,0.2,1.2,0.6,1.5c0.4,0.4,0.9,0.7,1.6,0.8c0.1,0,0.3,0.1,0.8,0.2
			c0.5,0.1,1,0.3,1.6,0.4c0.6,0.2,1.2,0.3,1.7,0.5c0.6,0.1,1,0.3,1.2,0.3c0.6,0.2,1.1,0.4,1.6,0.8c0.4,0.3,0.8,0.7,1.1,1.1
			c0.3,0.4,0.5,0.9,0.7,1.4c0.1,0.5,0.2,1,0.2,1.4c0,1-0.2,1.9-0.6,2.7c-0.4,0.7-1,1.3-1.7,1.8c-0.7,0.5-1.5,0.8-2.4,1
			c-0.9,0.2-1.8,0.3-2.7,0.3c-1.1,0-2-0.1-3-0.4c-0.9-0.3-1.7-0.7-2.4-1.2c-0.7-0.5-1.2-1.2-1.7-2.1c-0.4-0.8-0.6-1.8-0.6-3H399.7z"
			/>
	</g>
	<g>
		<path fill="#FBFBFB" d="M184.8,401.1h28.1v5.6c-2.1,2.4-4.1,4.9-5.9,7.5c-1.8,2.6-3.3,5.4-4.6,8.3c-1.3,2.9-2.4,6-3.2,9.2
			c-0.8,3.2-1.4,6.7-1.6,10.4h-7.3c0.2-3.2,0.8-6.4,1.7-9.6c0.9-3.2,2-6.2,3.4-9.2c1.4-3,3-5.8,4.8-8.6c1.8-2.7,3.8-5.3,5.9-7.7
			h-21.3V401.1z"/>
	</g>
	<g>
		<path fill="#FBFBFB" d="M271.1,423.7h7.7c1.4,0,2.6,0.2,3.7,0.7c1,0.5,1.9,1.1,2.5,2c0.7,0.8,1.1,1.8,1.5,2.9
			c0.3,1.1,0.5,2.3,0.5,3.6c0,1.3-0.2,2.5-0.5,3.6c-0.3,1.1-0.8,2.1-1.5,2.9c-0.7,0.8-1.5,1.5-2.5,2c-1,0.5-2.3,0.7-3.7,0.7h-7.7
			V423.7z M274.3,439.5h3.2c1.3,0,2.3-0.2,3.1-0.5c0.8-0.3,1.4-0.8,1.9-1.4c0.5-0.6,0.8-1.3,0.9-2.1c0.2-0.8,0.2-1.7,0.2-2.6
			c0-0.9-0.1-1.8-0.2-2.6c-0.2-0.8-0.5-1.5-0.9-2.1c-0.5-0.6-1.1-1.1-1.9-1.4c-0.8-0.3-1.8-0.5-3.1-0.5h-3.2V439.5z"/>
		<path fill="#FBFBFB" d="M293.9,423.7h3.4l7.1,18.5H301l-1.7-4.9h-7.4l-1.7,4.9h-3.3L293.9,423.7z M292.8,434.8h5.6l-2.8-7.9h-0.1
			L292.8,434.8z"/>
		<path fill="#FBFBFB" d="M308.3,434.9l-6.9-11.2h3.7l4.9,8.3l4.8-8.3h3.6l-6.9,11.2v7.2h-3.2V434.9z"/>
		<path fill="#FBFBFB" d="M321.6,436c0,0.7,0.1,1.3,0.4,1.8c0.2,0.5,0.6,0.9,1,1.2c0.4,0.3,0.9,0.6,1.5,0.7c0.6,0.1,1.2,0.2,1.8,0.2
			c0.7,0,1.3-0.1,1.8-0.2c0.5-0.2,0.9-0.4,1.2-0.6c0.3-0.3,0.5-0.6,0.7-0.9c0.1-0.3,0.2-0.7,0.2-1c0-0.7-0.2-1.2-0.5-1.6
			c-0.3-0.3-0.7-0.6-1-0.7c-0.7-0.2-1.4-0.5-2.3-0.7c-0.9-0.2-1.9-0.5-3.2-0.8c-0.8-0.2-1.5-0.5-2-0.8c-0.5-0.3-0.9-0.7-1.3-1.1
			c-0.3-0.4-0.5-0.9-0.7-1.3c-0.1-0.5-0.2-0.9-0.2-1.4c0-0.9,0.2-1.7,0.6-2.4c0.4-0.7,0.9-1.2,1.5-1.7c0.6-0.4,1.4-0.8,2.2-1
			c0.8-0.2,1.6-0.3,2.5-0.3c1,0,1.9,0.1,2.7,0.4c0.9,0.2,1.6,0.6,2.2,1.1c0.6,0.5,1.2,1.1,1.5,1.8c0.4,0.7,0.6,1.6,0.6,2.5h-3.2
			c-0.1-1.2-0.5-2-1.2-2.5c-0.7-0.5-1.6-0.7-2.8-0.7c-0.4,0-0.8,0-1.2,0.1c-0.4,0.1-0.8,0.2-1.1,0.4c-0.3,0.2-0.6,0.4-0.8,0.7
			c-0.2,0.3-0.3,0.7-0.3,1.2c0,0.7,0.2,1.2,0.6,1.5c0.4,0.4,0.9,0.7,1.6,0.8c0.1,0,0.3,0.1,0.8,0.2c0.5,0.1,1,0.3,1.6,0.4
			c0.6,0.2,1.2,0.3,1.7,0.5c0.6,0.1,1,0.3,1.2,0.3c0.6,0.2,1.1,0.4,1.6,0.8c0.4,0.3,0.8,0.7,1.1,1.1c0.3,0.4,0.5,0.9,0.7,1.4
			c0.1,0.5,0.2,1,0.2,1.4c0,1-0.2,1.9-0.6,2.7c-0.4,0.7-1,1.3-1.7,1.8c-0.7,0.5-1.5,0.8-2.4,1c-0.9,0.2-1.8,0.3-2.7,0.3
			c-1.1,0-2-0.1-3-0.4c-0.9-0.3-1.7-0.7-2.4-1.2c-0.7-0.5-1.2-1.2-1.7-2.1c-0.4-0.8-0.6-1.8-0.6-3H321.6z"/>
	</g>
</g>
</svg>
